<svg xmlns="http://www.w3.org/2000/svg" fill-rule="evenodd" stroke-linejoin="round" stroke-miterlimit="2" clip-rule="evenodd" viewBox="0 0 64 64" id="steam-social-media-store-game"><path fill="none" d="M0 0h64v64H0z"></path><path d="M21.001 38c-4.967 0-9 4.033-9 9 0 4.968 4.033 9 9 9s9-4.032 9-9c0-4.967-4.033-9-9-9Zm0 2c3.863 0 7 3.137 7 7 0 3.864-3.137 7-7 7s-7-3.136-7-7c0-3.863 3.137-7 7-7Z"></path><path d="M20.328 39.03a.998.998 0 0 1 .237-.669L32.242 24.6A14.085 14.085 0 0 1 32 22.001c0-7.727 6.273-14 14-14s14 6.273 14 14-6.273 14-14 14c-.888 0-1.757-.083-2.6-.241l-13.76 11.675a.999.999 0 0 1-.669.238 8.004 8.004 0 0 0-8.644-8.644ZM46.001 14c-4.415 0-8 3.585-8 8s3.585 8 8 8 8-3.585 8-8-3.585-8-8-8Zm0 2c3.31 0 6 2.689 6 6s-2.69 6-6 6c-3.311 0-6-2.689-6-6s2.689-6 6-6Z"></path><path d="M5.5 32.279a1 1 0 0 0-1.5.866v9.237a1 1 0 0 0 .5.866l14 8.083c2.39 1.38 5.45.56 6.83-1.83s.56-5.45-1.83-6.83l-18-10.392Z"></path></svg>